<?xml version="1.0" encoding="UTF-8" standalone="no"?>
<!-- Created with Inkscape (http://www.inkscape.org/) -->

<svg
   version="1.1"
   id="svg1"
   width="1596.0667"
   height="284.29333"
   viewBox="0 0 1596.0667 284.29333"
   sodipodi:docname="NUS-Computing-logo-full-color.eps"
   xmlns:inkscape="http://www.inkscape.org/namespaces/inkscape"
   xmlns:sodipodi="http://sodipodi.sourceforge.net/DTD/sodipodi-0.dtd"
   xmlns="http://www.w3.org/2000/svg"
   xmlns:svg="http://www.w3.org/2000/svg">
  <defs
     id="defs1" />
  <sodipodi:namedview
     id="namedview1"
     pagecolor="#ffffff"
     bordercolor="#000000"
     borderopacity="0.25"
     inkscape:showpageshadow="2"
     inkscape:pageopacity="0.0"
     inkscape:pagecheckerboard="0"
     inkscape:deskcolor="#d1d1d1">
    <inkscape:page
       x="0"
       y="0"
       inkscape:label="1"
       id="page1"
       width="1596.0667"
       height="284.29333"
       margin="0"
       bleed="0" />
  </sodipodi:namedview>
  <g
     id="g1"
     inkscape:groupmode="layer"
     inkscape:label="1">
    <g
       id="group-R5">
      <path
         id="path2"
         d="m 1146.73,1317.32 0.33,0.07 v 0 c -0.06,-0.04 -0.21,-0.04 -0.33,-0.07"
         style="fill:#5b261b;fill-opacity:1;fill-rule:nonzero;stroke:none"
         transform="matrix(0.13333333,0,0,-0.13333333,0,284.29333)" />
      <path
         id="path3"
         d="m 5128.96,1138.14 h 38.83 v 955.5 h -38.83 v -955.5"
         style="fill:#173e7d;fill-opacity:1;fill-rule:nonzero;stroke:none"
         transform="matrix(0.13333333,0,0,-0.13333333,0,284.29333)" />
      <path
         id="path4"
         d="m 6274.02,1929.88 c -60.11,35.51 -126.99,53.28 -196.72,53.28 -219.85,0 -366.07,-158.47 -366.07,-372.96 0,-224.04 161.23,-372.93 359.31,-372.93 68.31,0 159.82,17.78 207.61,46.47 l 8.2,-132.5 c -72.44,-30.05 -161.18,-34.15 -217.24,-34.15 -301.84,0 -502.68,193.96 -502.68,497.23 0,293.7 213.08,489.02 504.11,489.02 73.71,0 146.15,-10.93 214.44,-40.98 l -10.96,-132.48"
         style="fill:#173e7d;fill-opacity:1;fill-rule:nonzero;stroke:none"
         transform="matrix(0.13333333,0,0,-0.13333333,0,284.29333)" />
      <path
         id="path5"
         d="m 6678.22,1220.89 c 150.29,0 217.22,136.61 217.22,260.92 0,132.51 -80.64,260.9 -217.22,260.9 -137.97,0 -218.61,-128.39 -218.61,-260.9 0,-124.31 66.96,-260.92 218.61,-260.92 z m 0,625.66 c 211.73,0 353.83,-153.02 353.83,-364.74 0,-199.45 -144.79,-364.72 -353.83,-364.72 -210.34,0 -355.13,165.27 -355.13,364.72 0,211.72 142.01,364.74 355.13,364.74"
         style="fill:#173e7d;fill-opacity:1;fill-rule:nonzero;stroke:none"
         transform="matrix(0.13333333,0,0,-0.13333333,0,284.29333)" />
      <path
         id="path6"
         d="m 7134.32,1830.13 h 120.23 v -101.07 h 2.77 c 49.14,80.6 118.78,117.49 221.27,117.49 80.56,0 161.21,-40.99 198.08,-135.25 47.79,99.71 152.99,135.25 215.82,135.25 177.63,0 241.8,-114.78 241.8,-266.37 v -446.72 h -128.42 v 415.27 c 0,86.07 -20.51,193.98 -124.28,193.98 -131.2,0 -183.05,-128.39 -183.05,-258.19 v -351.06 h -128.41 v 415.27 c 0,86.07 -20.51,193.98 -124.35,193.98 -131.13,0 -183.06,-128.39 -183.06,-258.19 v -351.06 h -128.4 v 696.67"
         style="fill:#173e7d;fill-opacity:1;fill-rule:nonzero;stroke:none"
         transform="matrix(0.13333333,0,0,-0.13333333,0,284.29333)" />
      <path
         id="path7"
         d="m 8616.24,1742.71 c -139.38,0 -206.26,-132.51 -206.26,-262.28 0,-116.1 60.03,-259.54 204.83,-259.54 138.04,0 195.39,154.38 192.67,263.63 2.72,125.68 -51.92,258.19 -191.24,258.19 z m -334.69,87.42 h 122.93 v -98.36 h 2.74 c 34.18,51.93 113.37,114.78 236.29,114.78 202.21,0 300.57,-165.31 300.57,-352.45 0,-191.23 -88.82,-377.01 -299.21,-377.01 -122.93,0 -192.59,47.77 -232.17,111.98 h -2.72 V 846.609 h -128.43 v 983.521"
         style="fill:#173e7d;fill-opacity:1;fill-rule:nonzero;stroke:none"
         transform="matrix(0.13333333,0,0,-0.13333333,0,284.29333)" />
      <path
         id="path8"
         d="m 9663.87,1133.46 h -124.38 v 110.65 h -2.7 c -38.25,-79.25 -131.12,-127.02 -228.13,-127.02 -180.33,0 -260.89,111.98 -260.89,299.13 v 413.91 h 128.43 v -360.64 c 0,-162.52 35.45,-241.76 147.5,-248.6 146.15,0 211.75,117.48 211.75,286.85 v 322.39 h 128.42 v -696.67"
         style="fill:#173e7d;fill-opacity:1;fill-rule:nonzero;stroke:none"
         transform="matrix(0.13333333,0,0,-0.13333333,0,284.29333)" />
      <path
         id="path9"
         d="m 10184.1,1726.32 h -184.36 v -381.11 c 0,-80.59 49.16,-124.32 107.86,-124.32 39.6,0 68.3,12.29 87.4,24.57 v -109.25 c -28.7,-8.2 -68.3,-19.12 -109.2,-19.12 -132.58,0 -214.47,62.82 -214.47,202.16 v 407.07 h -157.12 v 103.81 h 157.12 v 161.21 l 128.41,40.96 v -202.17 h 184.36 v -103.81"
         style="fill:#173e7d;fill-opacity:1;fill-rule:nonzero;stroke:none"
         transform="matrix(0.13333333,0,0,-0.13333333,0,284.29333)" />
      <path
         id="path10"
         d="m 10293.3,1830.13 h 128.4 v -696.67 h -128.4 z m 136.6,155.74 h -144.8 v 144.79 h 144.8 v -144.79"
         style="fill:#173e7d;fill-opacity:1;fill-rule:nonzero;stroke:none"
         transform="matrix(0.13333333,0,0,-0.13333333,0,284.29333)" />
      <path
         id="path11"
         d="m 10588.3,1830.13 h 124.3 v -110.64 h 2.7 c 38.2,79.23 131.2,127.06 228.1,127.06 180.4,0 261,-112.03 261,-299.17 V 1133.46 H 11076 v 360.64 c 0,162.57 -35.6,241.77 -147.6,248.61 -146.1,0 -211.7,-117.48 -211.7,-286.85 v -322.4 h -128.4 v 696.67"
         style="fill:#173e7d;fill-opacity:1;fill-rule:nonzero;stroke:none"
         transform="matrix(0.13333333,0,0,-0.13333333,0,284.29333)" />
      <path
         id="path12"
         d="m 11842.1,1473.59 c 0,144.84 -66.9,269.12 -203.5,269.12 -129.8,0 -194,-140.71 -194,-259.54 0,-131.16 73.8,-245.9 194,-245.9 120.2,0 203.5,106.54 203.5,236.32 z m 128.4,-310.08 c 0,-211.74 -109.2,-333.319 -359.2,-333.319 -73.8,0 -138,9.59 -250,47.84 l 13.7,118.821 c 98.3,-45.082 157,-62.821 251.3,-62.821 135.3,0 215.8,91.539 215.8,239.039 v 68.29 h -2.7 c -54.6,-72.4 -144.8,-107.9 -233.6,-107.9 -199.4,0 -297.8,162.57 -297.8,342.86 0,178.96 101.1,370.23 311.5,370.23 122.9,0 191.2,-45.09 229.4,-120.23 h 2.8 v 103.81 h 118.8 v -666.62"
         style="fill:#173e7d;fill-opacity:1;fill-rule:nonzero;stroke:none"
         transform="matrix(0.13333333,0,0,-0.13333333,0,284.29333)" />
      <path
         id="path13"
         d="m 1874.15,892.602 h 42.58 l 96.39,-175.922 h 0.66 v 175.922 h 31.29 V 674.078 h -40.06 l -98.95,179.641 h -0.6 V 674.078 h -31.31 v 218.524"
         style="fill:#173e7d;fill-opacity:1;fill-rule:nonzero;stroke:none"
         transform="matrix(0.13333333,0,0,-0.13333333,0,284.29333)" />
      <path
         id="path14"
         d="m 2106.71,797.43 c 11.87,10 29.75,16.23 46.33,16.23 29.45,0 39.47,-14.058 39.47,-41.64 -11.58,0.621 -19.73,0.621 -31.33,0.621 -30.33,0 -74.18,-12.481 -74.18,-52.571 0,-34.699 24.12,-49.781 58.56,-49.781 26.91,0 42.56,14.77 49.45,24.449 h 0.61 v -20.66 h 27.57 c -0.64,4.711 -1.27,13.141 -1.27,31.332 v 66 c 0,43.5 -18.45,66.078 -64.18,66.078 -20.35,0 -37.87,-6.226 -52.57,-15.058 z m 85.8,-61.41 c 0,-23.782 -15.35,-41.918 -44.47,-41.918 -13.42,0 -29.75,9.078 -29.75,25.968 0,28.18 39.45,30.7 55.47,30.7 6.23,0 12.44,-0.629 18.75,-0.629 V 736.02"
         style="fill:#173e7d;fill-opacity:1;fill-rule:nonzero;stroke:none"
         transform="matrix(0.13333333,0,0,-0.13333333,0,284.29333)" />
      <path
         id="path15"
         d="m 2356.53,809.949 h -42.28 v -87.34 c 0,-18.488 11.31,-28.507 24.74,-28.507 9.11,0 15.67,2.828 20.04,5.636 V 674.68 c -6.58,-1.871 -15.62,-4.391 -25.04,-4.391 -30.37,0 -49.14,14.41 -49.14,46.391 v 93.269 h -36.01 v 23.77 h 36.01 v 36.992 l 29.4,9.34 v -46.332 h 42.28 v -23.77"
         style="fill:#173e7d;fill-opacity:1;fill-rule:nonzero;stroke:none"
         transform="matrix(0.13333333,0,0,-0.13333333,0,284.29333)" />
      <path
         id="path16"
         d="m 2428.56,902.578 h -33.22 v -33.156 h 33.22 z m -31.32,-228.5 h 29.43 v 159.641 h -29.43 V 674.078"
         style="fill:#173e7d;fill-opacity:1;fill-rule:nonzero;stroke:none"
         transform="matrix(0.13333333,0,0,-0.13333333,0,284.29333)" />
      <path
         id="path17"
         d="m 2469.85,753.891 c 0,-45.653 33.17,-83.602 81.39,-83.602 47.89,0 81.07,37.949 81.07,83.602 0,48.539 -32.53,83.597 -81.07,83.597 -48.83,0 -81.39,-35.058 -81.39,-83.597 z m 31.29,0 c 0,30.347 18.48,59.769 50.1,59.769 31.29,0 49.79,-29.422 49.79,-59.769 0,-28.493 -15.34,-59.789 -49.79,-59.789 -34.73,0 -50.1,31.296 -50.1,59.789"
         style="fill:#173e7d;fill-opacity:1;fill-rule:nonzero;stroke:none"
         transform="matrix(0.13333333,0,0,-0.13333333,0,284.29333)" />
      <path
         id="path18"
         d="m 2671.81,833.719 h 28.45 v -25.348 h 0.61 c 8.77,18.16 30.08,29.117 52.28,29.117 41.33,0 59.83,-25.687 59.83,-68.578 v -94.832 h -29.47 v 82.613 c 0,37.258 -8.09,55.43 -33.79,56.969 -33.5,0 -48.54,-26.898 -48.54,-65.699 v -73.883 h -29.37 v 159.641"
         style="fill:#173e7d;fill-opacity:1;fill-rule:nonzero;stroke:none"
         transform="matrix(0.13333333,0,0,-0.13333333,0,284.29333)" />
      <path
         id="path19"
         d="m 2872.08,797.43 c 11.91,10 29.77,16.23 46.31,16.23 29.43,0 39.49,-14.058 39.49,-41.64 -11.58,0.621 -19.73,0.621 -31.31,0.621 -30.33,0 -74.18,-12.481 -74.18,-52.571 0,-34.699 24.1,-49.781 58.52,-49.781 26.93,0 42.58,14.77 49.49,24.449 h 0.61 v -20.66 h 27.55 c -0.62,4.711 -1.27,13.141 -1.27,31.332 v 66 c 0,43.5 -18.45,66.078 -64.19,66.078 -20.28,0 -37.82,-6.226 -52.54,-15.058 z m 85.8,-61.41 c 0,-23.782 -15.33,-41.918 -44.43,-41.918 -13.48,0 -29.77,9.078 -29.77,25.968 0,28.18 39.42,30.7 55.43,30.7 6.23,0 12.52,-0.629 18.77,-0.629 V 736.02"
         style="fill:#173e7d;fill-opacity:1;fill-rule:nonzero;stroke:none"
         transform="matrix(0.13333333,0,0,-0.13333333,0,284.29333)" />
      <path
         id="path20"
         d="m 3040.85,908.871 h 29.41 V 674.078 h -29.41 v 234.793"
         style="fill:#173e7d;fill-opacity:1;fill-rule:nonzero;stroke:none"
         transform="matrix(0.13333333,0,0,-0.13333333,0,284.29333)" />
      <path
         id="path21"
         d="m 3375.21,764.539 c 0,-61.359 -30.98,-94.25 -84.81,-94.25 -53.85,0 -84.84,32.891 -84.84,94.25 v 128.063 h 31.32 v -124 c 0,-41.954 13.11,-70.711 53.52,-70.711 40.35,0 53.5,28.757 53.5,70.711 v 124 h 31.31 V 764.539"
         style="fill:#173e7d;fill-opacity:1;fill-rule:nonzero;stroke:none"
         transform="matrix(0.13333333,0,0,-0.13333333,0,284.29333)" />
      <path
         id="path22"
         d="m 3428.45,833.719 h 28.47 v -25.348 h 0.63 c 8.79,18.16 30.1,29.117 52.26,29.117 41.35,0 59.85,-25.687 59.85,-68.578 v -94.832 h -29.45 v 82.613 c 0,37.258 -8.15,55.43 -33.83,56.969 -33.5,0 -48.56,-26.898 -48.56,-65.699 v -73.883 h -29.37 v 159.641"
         style="fill:#173e7d;fill-opacity:1;fill-rule:nonzero;stroke:none"
         transform="matrix(0.13333333,0,0,-0.13333333,0,284.29333)" />
      <path
         id="path23"
         d="m 3654.78,869.422 h -33.19 v 33.156 h 33.19 z m -31.33,-35.703 h 29.43 V 674.078 h -29.43 v 159.641"
         style="fill:#173e7d;fill-opacity:1;fill-rule:nonzero;stroke:none"
         transform="matrix(0.13333333,0,0,-0.13333333,0,284.29333)" />
      <path
         id="path24"
         d="m 3777.47,674.078 h -35.04 l -57.28,159.641 h 32.22 l 43.23,-130.25 h 0.6 l 44.12,130.25 h 29.46 l -57.31,-159.641"
         style="fill:#173e7d;fill-opacity:1;fill-rule:nonzero;stroke:none"
         transform="matrix(0.13333333,0,0,-0.13333333,0,284.29333)" />
      <path
         id="path25"
         d="m 3985.63,710.059 c -7.18,-5.938 -29.7,-15.957 -49.12,-15.957 -27.83,0 -52.59,21.636 -52.59,53.226 h 113.96 c 0,51.313 -17.25,90.16 -70.45,90.16 -45.08,0 -74.84,-33.5 -74.84,-80.797 0,-51.91 25.99,-86.402 82.65,-86.402 26.31,0 39.14,6.332 50.39,10.352 z m -101.71,59.179 c 2.18,20.672 14.06,44.422 42.89,44.422 25.31,0 39.72,-20.039 39.72,-44.422 h -82.61"
         style="fill:#173e7d;fill-opacity:1;fill-rule:nonzero;stroke:none"
         transform="matrix(0.13333333,0,0,-0.13333333,0,284.29333)" />
      <path
         id="path26"
         d="m 4037.31,833.719 h 27.54 v -24.707 h 0.67 c 7.77,16.597 24.7,28.476 41.6,28.476 8.75,0 13.12,-0.937 19.41,-2.226 v -26.25 c -5.33,2.187 -11.29,2.789 -16.29,2.789 -26.3,0 -43.51,-25.039 -43.51,-65.129 v -72.594 h -29.42 v 159.641"
         style="fill:#173e7d;fill-opacity:1;fill-rule:nonzero;stroke:none"
         transform="matrix(0.13333333,0,0,-0.13333333,0,284.29333)" />
      <path
         id="path27"
         d="m 4147.22,705.41 c 11.54,-7.519 28.14,-11.308 36.56,-11.308 13.48,0 30.08,5.636 30.08,22.847 0,29.11 -69.22,26.629 -69.22,71.403 0,33.179 24.74,49.136 56.39,49.136 13.78,0 25.01,-2.84 36.64,-6.226 l -2.54,-25.731 c -6.57,4.117 -24.1,8.129 -30.98,8.129 -15.02,0 -28.14,-6.23 -28.14,-19.422 0,-32.508 69.16,-23.136 69.16,-74.168 0,-34.082 -27.27,-49.781 -55.75,-49.781 -15.02,0 -30.35,1.582 -43.82,8.789 l 1.62,26.332"
         style="fill:#173e7d;fill-opacity:1;fill-rule:nonzero;stroke:none"
         transform="matrix(0.13333333,0,0,-0.13333333,0,284.29333)" />
      <path
         id="path28"
         d="m 4315.91,869.422 h -33.17 v 33.156 h 33.17 z m -31.35,-35.703 h 29.47 V 674.078 h -29.47 v 159.641"
         style="fill:#173e7d;fill-opacity:1;fill-rule:nonzero;stroke:none"
         transform="matrix(0.13333333,0,0,-0.13333333,0,284.29333)" />
      <path
         id="path29"
         d="m 4452.69,809.949 h -42.21 v -87.34 c 0,-18.488 11.21,-28.507 24.69,-28.507 9.12,0 15.66,2.828 20.04,5.636 V 674.68 c -6.57,-1.871 -15.65,-4.391 -25.02,-4.391 -30.38,0 -49.16,14.41 -49.16,46.391 v 93.269 h -36.02 v 23.77 h 36.02 v 36.992 l 29.45,9.34 v -46.332 h 42.21 v -23.77"
         style="fill:#173e7d;fill-opacity:1;fill-rule:nonzero;stroke:none"
         transform="matrix(0.13333333,0,0,-0.13333333,0,284.29333)" />
      <path
         id="path30"
         d="m 4477.76,630.898 c 3.73,-1.289 8.73,-2.539 13.73,-2.539 26.29,0 35.06,36.34 35.06,39.45 0,3.441 -3.73,11.582 -5.62,16.89 l -54.16,149.02 h 32.24 l 42.89,-132.141 h 0.61 l 43.87,132.141 h 29.76 l -58.86,-163.078 c -10.96,-30.661 -22.58,-66.051 -61.35,-66.051 -9.44,0 -14.77,1.25 -20.04,2.18 l 1.87,24.128"
         style="fill:#173e7d;fill-opacity:1;fill-rule:nonzero;stroke:none"
         transform="matrix(0.13333333,0,0,-0.13333333,0,284.29333)" />
      <path
         id="path31"
         d="m 1860.99,383.941 c 0,-45.703 33.16,-83.613 81.4,-83.613 47.87,0 81.08,37.91 81.08,83.613 0,48.52 -32.58,83.618 -81.08,83.618 -48.81,0 -81.4,-35.098 -81.4,-83.618 z m 31.3,0 c 0,30.329 18.46,59.77 50.1,59.77 31.29,0 49.79,-29.441 49.79,-59.77 0,-28.461 -15.35,-59.82 -49.79,-59.82 -34.76,0 -50.1,31.359 -50.1,59.82"
         style="fill:#173e7d;fill-opacity:1;fill-rule:nonzero;stroke:none"
         transform="matrix(0.13333333,0,0,-0.13333333,0,284.29333)" />
      <path
         id="path32"
         d="m 2081.96,439.961 h -37.56 v 23.789 h 37.56 v 14.762 c 0,38.769 10.08,64.117 53.58,64.117 7.52,0 13.77,-0.91 19.67,-1.848 l -1.2,-23.793 c -3.45,1.25 -9.12,1.832 -14.12,1.832 -25.33,0 -28.47,-16.25 -28.47,-37.851 V 463.75 h 42.28 v -23.789 h -42.28 V 304.16 h -29.46 v 135.801"
         style="fill:#173e7d;fill-opacity:1;fill-rule:nonzero;stroke:none"
         transform="matrix(0.13333333,0,0,-0.13333333,0,284.29333)" />
      <path
         id="path33"
         d="m 2365.03,489.738 c -15.96,6.231 -24.73,9.102 -40.98,9.102 -17.56,0 -38.22,-6.301 -38.22,-29.141 0,-41.988 93.93,-32.199 93.93,-104.25 0,-46.609 -36,-65.121 -79.83,-65.121 -15.31,0 -30.37,4.434 -44.72,9.121 l 3.08,29.063 c 10.63,-4.352 29.43,-10.602 45.41,-10.602 17.83,0 42.87,10 42.87,35.699 0,48.809 -93.92,35.313 -93.92,103.243 0,38.886 30.68,59.507 70.17,59.507 14.4,0 31.58,-2.5 46.6,-7.769 l -4.39,-28.852"
         style="fill:#173e7d;fill-opacity:1;fill-rule:nonzero;stroke:none"
         transform="matrix(0.13333333,0,0,-0.13333333,0,284.29333)" />
      <path
         id="path34"
         d="m 2454.58,499.469 h -33.16 v 33.121 h 33.16 z m -31.33,-35.719 h 29.46 V 304.16 h -29.46 v 159.59"
         style="fill:#173e7d;fill-opacity:1;fill-rule:nonzero;stroke:none"
         transform="matrix(0.13333333,0,0,-0.13333333,0,284.29333)" />
      <path
         id="path35"
         d="m 2506.55,463.75 h 28.5 v -25.34 h 0.6 c 8.79,18.168 30.06,29.149 52.27,29.149 41.35,0 59.82,-25.707 59.82,-68.637 V 304.16 h -29.45 v 82.61 c 0,37.25 -8.12,55.39 -33.81,56.941 -33.47,0 -48.51,-26.941 -48.51,-65.711 v -73.84 h -29.42 v 159.59"
         style="fill:#173e7d;fill-opacity:1;fill-rule:nonzero;stroke:none"
         transform="matrix(0.13333333,0,0,-0.13333333,0,284.29333)" />
      <path
         id="path36"
         d="m 2839.03,463.75 h -27.28 v -23.789 h -0.61 c -8.77,17.199 -24.39,27.598 -52.6,27.598 -48.2,0 -71.34,-43.868 -71.34,-84.911 0,-41.269 22.5,-78.488 68.18,-78.488 20.39,0 41.08,8.102 53.58,24.68 h 0.58 v -15.641 c 0,-33.808 -18.46,-54.769 -49.45,-54.769 -21.6,0 -35.04,4.05 -57.58,14.359 l -3.14,-27.23 c 25.68,-8.75 40.41,-10.93 57.28,-10.93 57.31,0 82.38,27.851 82.38,76.402 z m -76.09,-135.84 c -27.58,0 -44.45,26.309 -44.45,56.36 0,27.21 14.74,59.441 44.45,59.441 31.31,0 46.6,-28.461 46.6,-61.66 0,-29.75 -19.06,-54.141 -46.6,-54.141"
         style="fill:#173e7d;fill-opacity:1;fill-rule:nonzero;stroke:none"
         transform="matrix(0.13333333,0,0,-0.13333333,0,284.29333)" />
      <path
         id="path37"
         d="m 2898.19,427.48 c 11.86,10.02 29.69,16.231 46.31,16.231 29.4,0 39.42,-14.063 39.42,-41.621 -11.55,0.64 -19.71,0.64 -31.29,0.64 -30.37,0 -74.18,-12.558 -74.18,-52.582 0,-34.757 24.06,-49.82 58.51,-49.82 26.9,0 42.58,14.742 49.5,24.473 h 0.62 V 304.16 h 27.5 c -0.59,4.649 -1.19,13.039 -1.19,31.27 v 66.031 c 0,43.539 -18.54,66.098 -64.2,66.098 -20.31,0 -37.87,-6.289 -52.6,-15.118 z m 85.73,-61.371 c 0,-23.789 -15.32,-41.988 -44.46,-41.988 -13.47,0 -29.72,9.117 -29.72,26.027 0,28.114 39.45,30.653 55.41,30.653 6.27,0 12.52,-0.653 18.77,-0.653 v -14.039"
         style="fill:#173e7d;fill-opacity:1;fill-rule:nonzero;stroke:none"
         transform="matrix(0.13333333,0,0,-0.13333333,0,284.29333)" />
      <path
         id="path38"
         d="m 3063.13,238.379 h 29.42 v 87.652 h 0.64 c 9.09,-14.722 25.02,-25.703 53.23,-25.703 48.2,0 68.55,42.602 68.55,86.442 0,42.878 -22.54,80.789 -68.87,80.789 -28.18,0 -46.34,-14.481 -54.18,-26.348 h -0.58 v 22.539 h -28.21 z m 120.53,146.211 c 0.63,-25.078 -12.52,-60.469 -44.16,-60.469 -33.16,0 -46.95,32.891 -46.95,59.508 0,29.711 15.35,60.082 47.26,60.082 31.92,0 44.48,-30.371 43.85,-59.121"
         style="fill:#173e7d;fill-opacity:1;fill-rule:nonzero;stroke:none"
         transform="matrix(0.13333333,0,0,-0.13333333,0,284.29333)" />
      <path
         id="path39"
         d="m 3243.76,383.941 c 0,-45.703 33.18,-83.613 81.39,-83.613 47.87,0 81.05,37.91 81.05,83.613 0,48.52 -32.54,83.618 -81.05,83.618 -48.87,0 -81.39,-35.098 -81.39,-83.618 z m 31.29,0 c 0,30.329 18.48,59.77 50.1,59.77 31.29,0 49.76,-29.441 49.76,-59.77 0,-28.461 -15.33,-59.82 -49.76,-59.82 -34.75,0 -50.1,31.359 -50.1,59.82"
         style="fill:#173e7d;fill-opacity:1;fill-rule:nonzero;stroke:none"
         transform="matrix(0.13333333,0,0,-0.13333333,0,284.29333)" />
      <path
         id="path40"
         d="m 3445.67,463.75 h 27.54 v -24.73 h 0.61 c 7.85,16.64 24.74,28.539 41.66,28.539 8.73,0 13.12,-0.957 19.39,-2.25 V 439.02 c -5.33,2.191 -11.25,2.832 -16.25,2.832 -26.29,0 -43.53,-25.082 -43.53,-65.122 v -72.57 h -29.42 v 159.59"
         style="fill:#173e7d;fill-opacity:1;fill-rule:nonzero;stroke:none"
         transform="matrix(0.13333333,0,0,-0.13333333,0,284.29333)" />
      <path
         id="path41"
         d="m 3689.83,340.09 c -7.18,-5.93 -29.78,-15.969 -49.14,-15.969 -27.89,0 -52.61,21.66 -52.61,53.238 h 113.94 c 0,51.332 -17.17,90.2 -70.41,90.2 -45.06,0 -74.82,-33.539 -74.82,-80.789 0,-51.95 25.99,-86.442 82.65,-86.442 26.31,0 39.14,6.293 50.39,10.352 z m -101.75,59.199 c 2.2,20.629 14.1,44.422 42.91,44.422 25.35,0 39.74,-20.02 39.74,-44.422 h -82.65"
         style="fill:#173e7d;fill-opacity:1;fill-rule:nonzero;stroke:none"
         transform="matrix(0.13333333,0,0,-0.13333333,0,284.29333)" />
      <path
         id="path42"
         d="m 3897.61,1328.18 c 59.94,-55.27 178.06,-105.71 322.36,-107.95 126.47,-2.16 228.5,35.92 234.77,140.77 13.41,226.97 -568.64,136.14 -546.06,519.3 11.21,191.72 201.56,255.21 406.94,251.71 110.97,-1.87 221.97,-28.19 282.77,-59.07 l 0.25,-136.14 c -74.2,50.89 -177.73,83.28 -263.4,84.89 -130.29,2.39 -233.71,-21.59 -235.35,-116.83 -3.51,-198.64 583.64,-150.99 561.19,-530.97 -12.57,-213.97 -220.52,-279.6 -438.18,-275.61 -125.19,1.72 -247.81,27.15 -325,66.66 l -0.29,163.24"
         style="fill:#173e7d;fill-opacity:1;fill-rule:nonzero;stroke:none"
         transform="matrix(0.13333333,0,0,-0.13333333,0,284.29333)" />
      <path
         id="path43"
         d="m 3347,1097.2 c -270.35,0 -426.03,121.44 -426.03,371.23 v 634.09 h 202.71 l 0.08,-634.09 c 0,-155.29 74.55,-249.49 223.24,-249.49 148.67,0 223.28,94.2 223.28,249.49 l 0.08,634.09 h 202.58 v -634.09 c 0,-249.79 -155.65,-371.23 -425.94,-371.23"
         style="fill:#173e7d;fill-opacity:1;fill-rule:nonzero;stroke:none"
         transform="matrix(0.13333333,0,0,-0.13333333,0,284.29333)" />
      <path
         id="path44"
         d="m 2591.73,2102.52 v -714.29 l -464.53,663.74 c -21.99,30.64 -58.3,50.55 -98.75,50.55 h -153.79 v -973.95 h 135.12 v 714.7 l 463.75,-661.75 c 22.03,-31.6 58.57,-52.95 100.39,-52.95 h 152.89 v 973.95 h -135.08"
         style="fill:#173e7d;fill-opacity:1;fill-rule:nonzero;stroke:none"
         transform="matrix(0.13333333,0,0,-0.13333333,0,284.29333)" />
      <path
         id="path45"
         d="M 1641.99,1090.43 V 2098.25 H 0.136719 V 1089.66 C 0.0585938,1088.82 0,1086.18 0,1081.9 0,1034.28 10.3242,782.328 212.93,463.16 434.258,113.922 799.453,5.96875 814.871,1.57813 L 820.398,0 825.906,1.57813 C 841.379,5.96875 1207.75,113.898 1429.23,463.16 c 220.79,347.961 213.15,616.06 212.76,627.27"
         style="fill:#173e7d;fill-opacity:1;fill-rule:nonzero;stroke:none"
         transform="matrix(0.13333333,0,0,-0.13333333,0,284.29333)" />
      <path
         id="path46"
         d="M 1393.64,493.289 C 1194.73,179.539 864.543,65.1016 818.672,50.4805 772.938,65.1406 443.848,179.539 245,493.289 v 0 C 45.625,807.379 38.3672,1059.23 38.3672,1093.63 c 0,2.46 0.0508,3.81 0.0508,3.98 0,0 0,163.8 0,356.8 H 1600.2 c 0,-192.66 0,-356.05 0,-356.05 0,-0.24 0.07,-1.63 0.07,-4.18 0,-35.26 -7.37,-286.918 -206.63,-600.891"
         style="fill:#ffffff;fill-opacity:1;fill-rule:nonzero;stroke:none"
         transform="matrix(0.13333333,0,0,-0.13333333,0,284.29333)" />
      <path
         id="path47"
         d="m 1146.22,1307.32 0.33,0.07 v 0 c -0.06,-0.04 -0.21,-0.04 -0.33,-0.07"
         style="fill:#5b261b;fill-opacity:1;fill-rule:nonzero;stroke:none"
         transform="matrix(0.13333333,0,0,-0.13333333,0,284.29333)" />
      <path
         id="path48"
         d="m 769.148,1982.26 c -2.808,0.5 -69.628,12.28 -149.429,12.28 -63.242,0 -120.317,-18.99 -145.41,-28.68 -25.079,9.69 -82.161,28.68 -145.391,28.68 -79.785,0 -146.621,-11.78 -149.438,-12.28 l -8.984,-1.6 v -69.08 -297.34 -58.61 l 13.234,2.89 c 0.555,0.12 55.84,11.98 137.254,11.98 61.196,0 124.621,-17.03 149.614,-26.04 l 3.687,-1.33 3.789,1.33 c 24.961,9.01 88.364,26.04 149.594,26.04 81.402,0 136.68,-11.86 137.227,-11.98 l 13.242,-2.89 v 58.61 297.34 69.07 l -8.989,1.61"
         style="fill:#f57c14;fill-opacity:1;fill-rule:nonzero;stroke:none"
         transform="matrix(0.13333333,0,0,-0.13333333,0,284.29333)" />
      <path
         id="path49"
         d="m 463.855,1946.13 c -25.292,9.5 -77.46,26.02 -134.441,26.02 -61.738,0 -116.199,-7.38 -136.609,-10.51 0,-16.92 0,-297.68 0,-321.29 21.343,3.64 67.3,10.01 128.672,10.01 55,0 110.015,-12.56 142.378,-22.56 v 318.33"
         style="fill:#ffffff;fill-opacity:1;fill-rule:nonzero;stroke:none"
         transform="matrix(0.13333333,0,0,-0.13333333,0,284.29333)" />
      <path
         id="path50"
         d="m 620.215,1972.15 c -57.727,0 -110.535,-16.96 -135.442,-26.39 v -318.28 c 32.192,10.05 87.754,22.88 143.391,22.88 61.356,0 107.305,-6.37 128.652,-10.01 0,23.61 0,304.37 0,321.29 -20.398,3.14 -74.851,10.51 -136.601,10.51"
         style="fill:#ffffff;fill-opacity:1;fill-rule:nonzero;stroke:none"
         transform="matrix(0.13333333,0,0,-0.13333333,0,284.29333)" />
      <path
         id="path51"
         d="m 253.367,1918.57 c -7.906,-2.13 -12.262,-9.36 -9.859,-16.19 2.437,-6.84 10.801,-10.63 18.687,-8.54 0.41,0.14 41.211,7.35 75.981,7.35 31.558,0 66.953,-14.34 67.32,-14.5 7.695,-2.5 16.313,0.9 19.184,7.58 2.886,6.68 -1.02,14.14 -8.711,16.68 -1.723,0.59 -40.727,16.06 -77.793,16.06 -39.399,0 -83.012,-7.97 -84.809,-8.44"
         style="fill:#173e7d;fill-opacity:1;fill-rule:nonzero;stroke:none"
         transform="matrix(0.13333333,0,0,-0.13333333,0,284.29333)" />
      <path
         id="path52"
         d="m 253.367,1854.75 c -7.906,-2.11 -12.262,-9.37 -9.859,-16.2 2.437,-6.82 10.801,-10.62 18.687,-8.51 0.41,0.07 41.211,7.3 75.981,7.3 31.558,0 66.953,-14.34 67.32,-14.47 7.695,-2.49 16.313,0.91 19.184,7.59 2.886,6.68 -1.02,14.13 -8.711,16.65 -1.723,0.55 -40.727,16.1 -77.793,16.1 -39.399,0 -83.012,-7.99 -84.809,-8.46"
         style="fill:#173e7d;fill-opacity:1;fill-rule:nonzero;stroke:none"
         transform="matrix(0.13333333,0,0,-0.13333333,0,284.29333)" />
      <path
         id="path53"
         d="m 253.367,1790.91 c -7.906,-2.11 -12.262,-9.39 -9.859,-16.18 2.437,-6.84 10.801,-10.66 18.687,-8.54 0.41,0.11 41.211,7.32 75.981,7.32 31.558,0 66.953,-14.33 67.32,-14.44 7.695,-2.53 16.313,0.87 19.184,7.55 2.886,6.71 -1.02,14.13 -8.711,16.64 -1.723,0.56 -40.727,16.13 -77.793,16.13 -39.399,0 -83.012,-7.98 -84.809,-8.48"
         style="fill:#173e7d;fill-opacity:1;fill-rule:nonzero;stroke:none"
         transform="matrix(0.13333333,0,0,-0.13333333,0,284.29333)" />
      <path
         id="path54"
         d="m 253.367,1727.09 c -7.906,-2.16 -12.262,-9.4 -9.859,-16.2 2.437,-6.84 10.801,-10.64 18.687,-8.53 0.41,0.11 41.211,7.36 75.981,7.36 31.558,0 66.953,-14.4 67.32,-14.5 7.695,-2.51 16.313,0.86 19.184,7.56 2.886,6.68 -1.02,14.16 -8.711,16.67 -1.723,0.53 -40.727,16.12 -77.793,16.12 -39.399,0 -83.012,-8.03 -84.809,-8.48"
         style="fill:#173e7d;fill-opacity:1;fill-rule:nonzero;stroke:none"
         transform="matrix(0.13333333,0,0,-0.13333333,0,284.29333)" />
      <path
         id="path55"
         d="m 697.512,1918.57 c 7.847,-2.13 12.246,-9.36 9.824,-16.19 -2.441,-6.84 -10.781,-10.63 -18.676,-8.54 -0.406,0.14 -41.211,7.35 -75.992,7.35 -31.547,0 -66.938,-14.34 -67.324,-14.5 -7.676,-2.5 -16.289,0.9 -19.16,7.58 -2.914,6.68 0.996,14.14 8.687,16.68 1.723,0.59 40.742,16.06 77.797,16.06 39.395,0 83.008,-7.97 84.844,-8.44"
         style="fill:#173e7d;fill-opacity:1;fill-rule:nonzero;stroke:none"
         transform="matrix(0.13333333,0,0,-0.13333333,0,284.29333)" />
      <path
         id="path56"
         d="m 697.512,1854.75 c 7.847,-2.11 12.246,-9.37 9.824,-16.2 -2.441,-6.82 -10.781,-10.62 -18.676,-8.51 -0.406,0.07 -41.211,7.3 -75.992,7.3 -31.547,0 -66.938,-14.34 -67.324,-14.47 -7.676,-2.49 -16.289,0.91 -19.16,7.59 -2.914,6.68 0.996,14.13 8.687,16.65 1.723,0.55 40.742,16.1 77.797,16.1 39.395,0 83.008,-7.99 84.844,-8.46"
         style="fill:#173e7d;fill-opacity:1;fill-rule:nonzero;stroke:none"
         transform="matrix(0.13333333,0,0,-0.13333333,0,284.29333)" />
      <path
         id="path57"
         d="m 697.512,1790.91 c 7.847,-2.11 12.246,-9.39 9.824,-16.18 -2.441,-6.84 -10.781,-10.66 -18.676,-8.54 -0.406,0.11 -41.211,7.32 -75.992,7.32 -31.547,0 -66.938,-14.33 -67.324,-14.44 -7.676,-2.53 -16.289,0.87 -19.16,7.55 -2.914,6.71 0.996,14.13 8.687,16.64 1.723,0.56 40.742,16.13 77.797,16.13 39.395,0 83.008,-7.98 84.844,-8.48"
         style="fill:#173e7d;fill-opacity:1;fill-rule:nonzero;stroke:none"
         transform="matrix(0.13333333,0,0,-0.13333333,0,284.29333)" />
      <path
         id="path58"
         d="m 697.512,1727.09 c 7.847,-2.16 12.246,-9.4 9.824,-16.2 -2.441,-6.84 -10.781,-10.64 -18.676,-8.53 -0.406,0.11 -41.211,7.36 -75.992,7.36 -31.547,0 -66.938,-14.4 -67.324,-14.5 -7.676,-2.51 -16.289,0.86 -19.16,7.56 -2.914,6.68 0.996,14.16 8.687,16.67 1.723,0.53 40.742,16.12 77.797,16.12 39.395,0 83.008,-8.03 84.844,-8.48"
         style="fill:#173e7d;fill-opacity:1;fill-rule:nonzero;stroke:none"
         transform="matrix(0.13333333,0,0,-0.13333333,0,284.29333)" />
      <path
         id="path59"
         d="m 1529.64,1164.31 c -8.05,29.38 -22.87,42.38 -42.62,52.85 -54.45,28.89 -125.55,8.65 -187.91,-12.59 -47.05,-16.04 -61.25,-20.88 -114.57,-29.05 -40.27,-6.19 -175,-23.63 -217.575,11.59 -6.113,5.03 -12.246,16.09 -12.871,23.2 -1.196,14.71 5.449,32.22 10.547,37.78 10.757,11.77 35.839,17.49 76.719,17.49 l 104.29,-1.64 c 6.55,-8.38 23.23,-21.89 65.59,-30.96 67.38,-14.37 141.48,9.01 141.48,9.01 0,0 -12.24,2.44 -22.44,10.11 -9,6.72 -8.24,16.85 -8.24,16.85 0,0 14.86,-7.18 36.49,-6.51 26.95,0.76 39.41,13.57 64.57,19.96 25.15,6.39 53.16,1.13 53.16,1.13 0,0 -25.41,27.15 -50.61,31.95 -25.09,4.8 -56.46,-1.64 -56.46,-1.64 0,0 7.87,3.52 17.23,11.98 7.5,6.73 9,18.33 9,18.33 0,0 -30.1,-11.69 -60.64,-10.09 -30.57,1.6 -28.32,12.61 -87.58,14.22 -44.94,1.2 -82.07,-25.49 -97.44,-38.5 -48.05,3.13 -85.9,4.84 -108.03,4.84 -61.093,0 -96.371,-10.01 -117.929,-33.45 -18.008,-19.57 -25.84,-44.91 -23.266,-75.34 1.992,-23.67 12.563,-43.55 31.391,-59.1 57.027,-47.16 209.924,-32.68 264.024,-23.12 60.6,10.7 78.71,15.37 113.81,27.01 l 2.01,0.68 c 27.15,9.07 109.78,36.7 144.43,18.29 7.03,-3.71 11.86,-10.69 14.79,-21.34 1.3,-4.78 1.97,-9.09 1.97,-13.05 0,-7.17 -2.19,-13.17 -6.64,-18.63 -31.54,-38.58 -150.22,-45.14 -201.76,-47.91 -5.68,1.35 -40.14,9.08 -85.9,9.34 -30.6,0.18 -56.25,-1.76 -83.4,-3.81 -49.53,-3.75 -100.74,-7.63 -185.795,2.1 -39.453,4.51 -76.43,11.71 -104.27,19.96 -1.3,10.57 -6.257,20.65 -16.828,32.49 20.41,-6.59 46.938,15.83 54.399,27 -0.098,1.11 -36.25,10.68 -38.403,34.15 -0.078,0.73 25.61,-2.13 36.274,33.06 -25.625,13.87 -17.563,18.98 -29.867,36.28 -10.86,15.2 -26.559,22.87 -45.875,22.38 7.808,1 8.511,0 17.046,4.3 11.118,5.55 18.852,20.88 29.883,20.25 -22.281,34.87 -82.129,39.48 -106.953,32.12 6.367,7.94 16.152,16.72 16.274,27.58 -33.086,-9.12 -65.508,8.08 -98.872,1.83 -27.632,-5.19 -43.418,-16.41 -52.085,-42.68 h -0.083 -1.113 -0.074 c -8.715,26.27 -24.453,37.49 -52.109,42.68 -33.364,6.25 -65.801,-10.95 -98.911,-1.83 0.176,-10.86 9.946,-19.64 16.274,-27.58 -24.77,7.36 -84.629,2.75 -106.914,-32.12 11.035,0.63 18.75,-14.7 29.859,-20.25 9.809,-4.93 11.778,-3.94 17.071,-4.3 -19.293,0.49 -35,-7.18 -45.875,-22.38 -12.344,-17.3 -4.258,-22.41 -29.868,-36.28 10.688,-35.19 36.328,-32.33 36.289,-33.06 -2.144,-23.47 -38.339,-33.04 -38.418,-34.15 7.461,-11.17 33.989,-33.59 54.414,-27 -16.753,-18.73 -19.546,-33.09 -15.718,-51.96 -26.035,19.73 -51.723,41.53 -65.371,59.6 -3.203,4.65 -13.418,38.28 -20.188,60.53 l -5.515,18.09 c -0.012,0.01 -2.715,9.61 -2.715,9.61 -8.157,29.97 -16.02,55.05 -29.629,58.37 -7.5,1.79 -14.145,2.19 -20.156,1.82 -4.708,7.34 -11.235,15.08 -18.911,17.46 -15.781,4.83 -23.418,1.37 -23.418,1.37 0,0 12.778,-9.17 17.075,-18.61 1.089,-2.43 1.796,-4.72 2.222,-6.8 -2.886,-1.63 -5.445,-3.39 -7.605,-5.16 l -1.153,-0.92 c -1.613,-1.3 -3.82,-3.12 -6.179,-5.26 -1.074,0.34 -2.168,0.6 -3.266,0.75 -16.387,2.15 -23.379,-2.61 -23.379,-2.61 0,0 8.918,-4.34 15.512,-10.42 -5.703,-7.93 -10.41,-18.11 -10.41,-30.65 0,-1.24 0.125,-2.55 0.254,-3.84 -15.664,-1.2 -21.45,-6.86 -21.45,-6.86 0,0 15.2,-4.1 22.583,-11.37 0.808,-0.81 1.511,-1.63 2.175,-2.43 -0.715,-0.81 -1.258,-1.41 -1.258,-1.41 -3.167,-4.96 -4.55,-10.58 -4.55,-16.42 0,-13.66 7.656,-28.4 18.172,-38.01 0,0 28.093,-23.26 30.711,-25.44 11.132,-24.79 23.402,-46.6 31.488,-55.77 2.488,-3.16 19.656,-32.71 37.832,-63.978 2.422,-4.172 4.898,-8.434 7.422,-12.774 3.906,-19.179 8.316,-43.078 10.293,-61.828 3.613,-33.761 0.172,-71.468 0.172,-71.468 0,0 21.875,1.078 31.796,15.339 0.2,0.348 8.071,-23.41 6.914,-50.14 -0.859,-19.781 -6.128,-47.223 -6.128,-47.223 0,0 21.328,11.301 37.378,25.5 8.071,7.133 16.25,18.91 21.196,26.66 17.637,-11.258 68.125,6.703 93.308,16.832 4.922,-10.019 11.668,-21.082 20.965,-33.609 3.672,15.117 19.809,22.68 27.285,34.769 2.278,0.008 4.563,0.02 6.86,0.032 0.918,-16.551 -3.867,-32.09 11.797,-63.043 4.429,-8.75 26.129,-41.11 41.922,-57.731 -5.977,-28 -17.317,-79.078 -29.063,-120.918 -13.43,-47.871 -24.309,-71.609 -30.527,-82.679 -17.981,-0.879 -50.926,-1.993 -61.375,-1.532 -25.051,1.2 -43.594,-4.05 -55.11,-15.578 -0.847,-0.859 -1.535,-1.73 -2.258,-2.609 -8.75,-1.211 -18.789,-3.953 -24.214,-10.063 -10.903,-12.339 -10.981,-20.781 -10.981,-20.781 0,0 13.653,7.871 24.008,7.871 0.762,0 1.465,-0.058 2.187,-0.109 -0.019,-0.871 -0.011,-1.61 0.016,-2.141 0.117,-2.41 1.547,-6.34 3.82,-11.09 -1.687,-1.23 -3.203,-2.597 -4.421,-4.179 -10.059,-13.071 -9.512,-21.481 -9.512,-21.481 0,0 12.793,8.571 23.086,9.422 3.219,-5.109 6.836,-10.41 10.625,-15.531 -0.442,-0.531 -0.903,-1.059 -1.274,-1.621 -9.058,-13.809 -7.871,-22.149 -7.871,-22.149 0,0 10.156,7.95 19.731,10.559 3.281,-3.731 6.519,-7.09 9.566,-9.77 15.063,-13.269 52.5,-4.668 99.902,7.961 l 29.415,7.25 c 20.753,3.871 33.656,12.16 43.148,27.731 2.254,3.679 4.312,9.73 7.5,19.308 l 2.793,8.289 c 6.519,18.403 11.629,30.153 24.656,51.024 0.403,0.637 13.113,21.066 30.418,49.238 15.332,12.75 33.813,27.59 47.246,36.66 20.512,13.84 61.328,34.68 61.328,34.68 0,0 -10.918,17.699 -27.105,20.09 -0.356,0.058 20.699,21.422 38.277,29.031 19.848,8.649 45.41,13.34 45.41,13.34 0,0 -9.296,19.129 -23.711,28.379 5.997,1.949 11.489,5.461 18.325,9.961 34.468,22.48 59.898,21.699 83.867,14.961 0.957,15.547 -2.973,25.066 -16.469,34.058 11.367,4.828 23.067,8.942 35.488,11.918 7.871,-13.5 16.758,-28.41 20.801,-34.16 17.778,-25.199 44.492,-59.859 66.135,-81.558 0.57,-0.54 0.82,-1.551 0.82,-2.918 0,-9.082 -11.072,-34.18 -17.385,-48.524 l -5.425,-12.379 c 0,-0.008 -21.782,-51.187 -28.125,-66.129 -12.66,-0.73 -49.399,-2.718 -62.285,-2.082 -24.415,1.153 -42.5,-3.937 -53.735,-15.16 -1.433,-1.418 -2.664,-2.887 -3.75,-4.348 -9.082,-1.621 -19.988,-4.941 -25.39,-11.82 -10.196,-13.012 -9.786,-21.371 -9.786,-21.371 0,0 13.188,8.609 23.496,9.223 1.625,0.097 3.11,0.047 4.536,-0.051 0.425,-2.762 1.922,-6.641 4.254,-11.281 -2.418,-1.731 -4.532,-3.7 -6.036,-6.008 -9.043,-13.813 -7.847,-22.102 -7.847,-22.102 0,0 12.343,9.711 22.617,11.211 0.391,0.059 0.73,0.059 1.109,0.11 2.485,-3.813 5.141,-7.661 7.895,-11.422 -0.988,-0.981 -1.914,-2.02 -2.656,-3.149 -9.067,-13.82 -7.891,-22.199 -7.891,-22.199 0,0 11.824,9.348 21.934,11.109 3.164,-3.621 6.25,-6.832 9.082,-9.32 14.429,-12.73 45.234,-5.16 87.207,6.91 l 29.863,7.821 c 20.248,3.769 32.848,11.859 42.108,27.039 0.02,0.019 7.91,16.929 7.91,16.929 3.69,8.571 7.87,18.301 11.11,23.352 4.87,7.648 9.98,16.867 15.16,26.82 7.03,6.02 13.57,11.508 18.18,15.047 13.38,10.274 47.37,28.981 47.37,28.981 0,0 -6.76,14.902 -20.63,16.293 -0.17,0.027 13.48,15.207 29.86,24.718 11.64,6.758 34.73,10.77 34.73,10.77 0,0 -15.94,13.469 -28.01,18.738 -4.86,2.113 -11.27,3.543 -17.26,4.582 -0.76,6.918 -4.4,14.66 -11.04,24.91 -11.91,18.418 5.53,58.039 18.05,80.469 6.29,-8.898 17.6,-23.648 36.42,-44.578 0,0 60.51,-66.199 73.91,-80.859 -2.6,-10.551 -11.11,-43.563 -24.51,-79.993 -9.69,-26.5 -23.5,-54.129 -30.57,-67.718 -14.57,-0.813 -47.59,-2.512 -59.67,-1.95 -24.41,1.168 -42.5,-3.929 -53.75,-15.171 -1.89,-1.891 -3.37,-3.84 -4.68,-5.79 -8.21,-1.949 -17.11,-5.39 -21.72,-11.468 -9.98,-13.203 -9.38,-21.582 -9.38,-21.582 0,0 9.89,9.281 23.3,9.64 0.63,0.008 1.18,-0.019 1.76,-0.031 0.65,-2.848 2.23,-6.687 4.51,-11.16 -2.38,-1.707 -4.45,-3.641 -5.93,-5.899 -9.05,-13.839 -7.86,-22.171 -7.86,-22.171 0,0 12.33,9.793 22.56,11.25 0.39,0.062 0.75,0.062 1.12,0.089 3.18,-4.808 6.64,-9.699 10.17,-14.347 -0.06,-0.102 -0.15,-0.18 -0.21,-0.27 -9.06,-13.793 -7.87,-22.172 -7.87,-22.172 0,0 9.1,7.231 18.2,10.18 2.64,-2.93 5.21,-5.551 7.6,-7.648 14.47,-12.782 45.39,-5.18 87.48,6.949 l 29.63,7.769 c 20.21,3.75 32.81,11.84 42.11,27.032 4.12,6.757 22.5,49.629 27.57,62.019 9.09,22.289 19.32,45.281 29.22,66.32 4.96,4.211 9.65,8 13.42,10.61 16.52,11.488 51.95,31.699 51.95,31.699 0,0 -7.07,15.16 -20.64,16.281 -0.18,0.051 13.89,13.5 27.93,22.461 13.01,8.328 36.64,13.039 36.64,13.039 0,0 -17.01,12.95 -29.08,18.16 -7.09,3.098 -17.17,5.051 -24.32,6.141 -2.07,10.059 -7.17,13.418 -14.8,17.289 -6.76,3.442 -16.06,8.149 -30.2,24.801 -18.18,21.391 -20.92,62.258 -20.92,103.059 0,8.96 0.14,17.929 0.28,26.679 l 0.08,39.16 c -1.22,46 -7.95,78.121 -14.3,99.291 59.98,5.45 169.94,17.59 214.98,72.68 13.51,16.55 20.37,35.9 20.37,57.01 0,9.42 -1.37,19.2 -4.12,29.22"
         style="fill:#173e7d;fill-opacity:1;fill-rule:nonzero;stroke:none"
         transform="matrix(0.13333333,0,0,-0.13333333,0,284.29333)" />
      <path
         id="path60"
         d="m 604.492,1174.19 c 0.281,-2.49 8.633,-75.45 8.633,-75.45 0,0 -39.59,-21.48 -41.555,-22.55 -0.015,-2.09 -0.242,-25.14 -0.254,-26.92 1.821,-1.4 8.965,-6.75 16.372,-9.88 13.347,-5.66 26.746,-2.32 26.882,-2.28 l 3.379,0.86 -2.859,-9.99 -1.211,-0.23 c -0.637,-0.12 -15.688,-2.87 -27.961,0.83 -10.652,3.23 -16.23,7.33 -17.703,8.53 -1.035,0 -5.461,0 -6.457,0 -1.465,-1.12 -7.332,-5.28 -18.106,-8.53 -12.234,-3.7 -27.304,-0.95 -27.937,-0.83 l -1.211,0.23 -2.863,9.99 3.379,-0.86 c 0.136,-0.04 13.515,-3.38 26.921,2.28 7.368,3.13 14.536,8.5 16.34,9.88 -0.011,1.8 -0.105,25.36 -0.105,27.2 -1.606,1.14 -41.406,29.47 -41.406,29.47 0,0 70.339,0.08 74.109,0.09 0,3.83 0,98.73 0,98.73 l 58.586,0.45 7.398,0.06 c 0,0 -50.254,-29.82 -52.371,-31.08 z m -126.406,31.61 54.133,0.63 2.144,0.02 -2.019,-31.51 z m 209.504,3.71 c 9.39,6.5 31.836,25.1 19.844,47.74 -12.715,23.87 -41.914,14.13 -50.586,10.56 -1.211,1.23 -65.879,29.36 -66.758,28.86 0.601,0.43 -25.254,-29.92 -25.235,-29.92 -0.019,0 -25.761,30.35 -25.199,29.92 -0.879,0.5 -65.547,-27.63 -66.734,-28.86 -8.676,3.57 -37.871,13.31 -50.586,-10.56 -12.031,-22.64 10.406,-41.24 19.805,-47.74 -0.121,-0.39 -0.215,-0.56 -0.215,-0.56 0,0 -21.098,-37.37 -20.84,-36.92 0.332,0.6 60.934,-73.41 60.918,-73.41 0.059,0.17 -0.102,-47.61 -0.117,-47.81 0,0 24.097,-16.21 25.933,-16.7 3.852,-18.17 5.024,-27.55 9.258,-37.372 1.352,-3.179 24.453,-9.918 46.899,-10.308 0.293,0 1.816,0 1.816,0 22.422,0.39 45.523,7.129 46.875,10.308 4.219,9.822 5.406,19.202 9.258,37.372 1.851,0.49 25.801,16.7 25.801,16.7 0.054,-0.08 0,47.69 0.054,47.81 -0.054,0 60.586,74.01 60.918,73.41 0.239,-0.45 -20.84,36.92 -20.84,36.92 0,0 -0.117,0.17 -0.269,0.56"
         style="fill:#f57c14;fill-opacity:1;fill-rule:nonzero;stroke:none"
         transform="matrix(0.13333333,0,0,-0.13333333,0,284.29333)" />
      <path
         id="path61"
         d="m 1099.25,663.871 c 7.97,7.391 11.97,11.43 11.97,16.688 0,4.511 -2.95,9.921 -8.91,19.113 -4.49,6.957 -6.3,15.308 -6.3,24.219 0,29.531 19.66,65.05 27.42,77.949 -2.21,2.781 -5.35,6.82 -9.24,12.148 -2.07,1.364 -3.89,2.571 -4.98,3.352 -5.02,3.551 -17.93,14.41 -25.98,25.012 -1.09,1.488 -2.26,3.339 -3.44,5.359 -16.64,0.488 -55.48,1.609 -95.442,-10.551 12.324,-7.09 15.172,-16.269 15.722,-28.051 -26.308,5.719 -48.515,6.063 -68.476,3.161 6.953,-11.86 14.121,-23.821 17.461,-28.54 17.422,-24.699 43.511,-58.589 64.485,-79.601 3.42,-3.418 4.89,-7.93 4.89,-13.438 0,-13 -8.19,-31.582 -18.36,-54.671 l -5.375,-12.258 -31.715,-74.614 -4.628,-0.289 c -2.129,-0.121 -52.192,-3.168 -68.555,-2.347 -17.871,0.847 -31.527,-2.184 -39.914,-8.684 0.984,-3.43 1.68,-7.918 0.422,-12.148 -1.653,-5.602 -5.16,-8.418 -7.969,-9.871 0.367,-0.789 0.801,-1.637 1.277,-2.571 9.832,3.282 19.231,4.211 19.231,4.211 0,0 5.426,-7.148 3.219,-16.078 -1.739,-6.82 -5.04,-10.41 -7.379,-12.191 0.679,-0.95 1.343,-1.879 2.031,-2.821 11.109,4.481 23.223,5.7 23.223,5.7 0,0 5.679,-8.668 3.789,-18.028 -0.997,-5.082 -3.555,-7.992 -5.903,-9.672 13.403,-4.257 48.031,5.672 69.594,11.879 l 31.25,8.141 c 16.07,3 25.052,8.633 32.052,20.09 l 6.93,15.07 c 3.93,9.102 8.38,19.422 12.25,25.5 9.64,15.133 20.54,37.301 31.07,58.742 13.71,27.918 25.57,52.028 34.28,60.09"
         style="fill:#f57c14;fill-opacity:1;fill-rule:nonzero;stroke:none"
         transform="matrix(0.13333333,0,0,-0.13333333,0,284.29333)" />
      <path
         id="path62"
         d="m 502.078,856.391 c 0.039,-0.313 0.012,-0.582 0.031,-0.903 0.086,0 0.164,0 0.262,0 -0.105,0.313 -0.176,0.602 -0.293,0.903"
         style="fill:#f57c14;fill-opacity:1;fill-rule:nonzero;stroke:none"
         transform="matrix(0.13333333,0,0,-0.13333333,0,284.29333)" />
      <path
         id="path63"
         d="m 437.59,942.531 c -9.692,-14.59 -27.27,-21.39 -50.039,-24.222 4.297,22.73 0.387,38.261 -7.988,56.25 -7.29,15.863 -27.305,46.951 -33.247,64.591 -1.675,4.99 -3.257,9.62 -4.707,14 -31.675,23.03 -66.472,51.05 -83.945,74.19 -4.129,5.45 -10.34,25 -22.559,65.21 l -5.503,18.02 -2.856,10.1 c -8.047,29.58 -14.383,45.63 -18.836,47.76 -3.055,0.71 -5.871,1.08 -8.562,1.3 l 0.015,-0.05 c 0,0 -1.402,-9.04 -16.636,-8.34 -3.555,0.16 -6.528,1.35 -8.832,2.67 -1.305,-0.83 -2.54,-1.69 -3.59,-2.56 l -1.25,-1 c -0.766,-0.61 -1.516,-1.24 -2.27,-1.88 8.918,-8.07 15.356,-18.53 15.356,-18.53 0,0 -3.403,-9.27 -15.024,-11.34 -8.355,-1.45 -14.859,4.5 -14.859,4.5 0,0 0.113,2.89 -1.074,7.05 -3.52,-6.79 -5.149,-14.7 -3.352,-23.97 11.785,-6.08 21.965,-17.08 21.965,-17.08 0,0 -0.277,-8.72 -12.387,-14.83 -4.566,-2.32 -9.234,-0.98 -12.281,0.48 -1.524,-8.97 3.516,-21.65 12.851,-30.19 l 32.801,-27.12 0.711,-1.62 c 10.434,-23.48 22.68,-45.52 29.809,-53.61 2.683,-3.06 12.422,-19.67 39.551,-66.36 35.984,-61.919 90.371,-155.501 104.351,-171.079 5.395,-5.043 42.473,3.609 79.106,18.219 -13.086,36.18 -1.719,58.308 -6.719,89.441"
         style="fill:#f57c14;fill-opacity:1;fill-rule:nonzero;stroke:none"
         transform="matrix(0.13333333,0,0,-0.13333333,0,284.29333)" />
      <path
         id="path64"
         d="m 1515.28,1160.45 c -6.68,24.38 -17.97,34.43 -35.17,43.57 -49.18,26.09 -116.66,6.69 -176.06,-13.54 -50.56,-17.24 -64.51,-21.62 -117.13,-29.67 -53.61,-8.24 -183.32,-23.28 -229.408,14.83 -9.242,7.64 -17.27,22.32 -18.266,33.51 -1.48,18.37 6.274,40.26 14.438,49.18 14.121,15.46 41.187,22.36 87.786,22.36 0,0 69.93,-1.1 108.56,-1.71 l 8.14,7.34 -7.95,8.5 c -48.32,3.16 -86.36,4.9 -108.39,4.9 -56.471,0 -88.439,-8.55 -106.896,-28.6 -15.039,-16.35 -21.543,-37.85 -19.36,-63.92 1.66,-19.5 10.41,-35.91 26.02,-48.79 48.472,-40.11 190.626,-30.75 251.856,-19.92 59.67,10.53 77.42,15.11 111.68,26.47 l 1.99,0.67 c 31.68,10.6 115.88,38.74 156.21,17.33 10.88,-5.76 18.16,-15.78 22.23,-30.63 4.98,-18.1 2.52,-32.86 -7.52,-45.15 -35.9,-43.88 -151.39,-50.1 -213.42,-53.44 l -1.35,-0.07 -1.07,0.27 c -0.37,0.09 -36.39,8.9 -83.52,9.17 -29.98,0.18 -55.33,-1.75 -82.17,-3.78 -50.23,-3.8 -102.162,-7.73 -188.627,2.16 -38.418,4.4 -74.629,11.4 -102.973,19.51 -1.785,-11.6 -6.426,-24.75 -12.168,-41.81 -5.933,-17.64 -25.906,-48.729 -33.262,-64.588 -8.347,-17.993 -12.261,-33.524 -8.003,-56.25 -22.739,2.828 -40.305,9.628 -50.024,24.218 -6.812,-42.699 17.309,-68.34 -33.426,-136.781 -5.066,20.699 -33.507,27.191 -31.007,50.641 -8.922,-24.371 5.414,-38.508 -14.942,-78.879 -5.125,-10.16 -33.57,-52.09 -48.98,-64.321 -6.25,-29.05 -17.231,-78.039 -28.535,-118.359 -15.43,-54.992 -28.032,-79.902 -34.165,-89.859 l -2.07,-3.352 -3.926,-0.211 c -16.316,-0.871 -54.714,-2.25 -66.875,-1.719 -16.89,0.809 -30.117,-1.761 -38.882,-7.371 0.796,-4.211 1.257,-10.168 -1.29,-14.531 -3.046,-5.226 -7.296,-7.508 -9.523,-8.406 0.383,-0.902 0.852,-1.891 1.414,-3.051 10.942,3.117 21.977,3.359 21.977,3.359 0,0 4.547,-9.191 -0.16,-20.308 -1.903,-4.512 -4.571,-6.75 -6.512,-7.863 1.062,-1.508 2.137,-3.008 3.242,-4.5 11.594,5.121 25.129,6.472 25.129,6.472 0,0 5.269,-6.84 1.836,-20.961 -1.074,-4.39 -3.442,-6.59 -5.442,-7.718 15.286,-4.774 58.211,6.636 82.332,13.07 0,0 30.508,7.508 30.52,7.508 16.582,3.09 25.867,8.91 33.105,20.8 1.473,2.411 3.915,9.739 6.067,16.219 0,0 2.848,8.473 2.871,8.512 6.773,19.117 12.398,32.078 26.094,54.019 31.226,49.95 123.55,200.93 127.293,213.059 0.105,0.629 0.144,1.391 0.144,2.281 0,7.981 -3.902,25.629 -7.051,36.86 l -1.992,7.14 c 0,0 298.951,87.41 316.251,92.469 -6.03,10.422 -18.4,31.801 -18.4,31.801 l 10.9,9.832 c 0.98,-0.703 23.95,-17.391 36.58,-30.024 11.08,-11.097 21.78,-28.238 33.11,-46.367 l 5.78,-9.211 c 12.79,-20.269 25.41,-35.289 25.53,-35.449 l 0.47,-0.551 0.33,-0.601 c 0.1,-0.168 10.1,-17.559 41.4,-52.367 l 79.16,-86.641 -0.87,-3.832 c -0.1,-0.399 -9.48,-40.738 -25.96,-85.578 -10.8,-29.551 -26.9,-61.102 -33.3,-73.301 l -1.99,-3.75 -4.22,-0.25 c -15.2,-0.852 -51.98,-2.809 -65.53,-2.18 -16.74,0.801 -29.79,-1.8 -38.26,-7.468 1.15,-3.954 2.22,-10.032 -0.1,-14.813 -2.6,-5.289 -6.39,-8.199 -8.55,-9.539 0.35,-0.68 0.72,-1.422 1.13,-2.191 9.88,3.312 19.35,4.261 19.35,4.261 0,0 4.81,-7.8 3.25,-17.711 -1.1,-6.629 -4.54,-9.64 -7.11,-11.007 0.95,-1.332 1.93,-2.653 2.91,-3.954 11.89,5.75 26.73,7.231 26.73,7.231 0,0 5,-6.891 3.31,-17.539 -0.79,-4.942 -4.14,-8.281 -6.8,-10.219 15.37,-1.82 46.17,7.039 65.98,12.738 0,0 31.03,8.11 31.05,8.11 16.04,2.98 25.02,8.609 32.05,20.101 3.03,4.969 20.06,44.192 26.5,59.879 18.75,46.012 46.43,104.199 64.36,135.321 l 9.96,15.679 c 5.88,8.77 10.96,16.34 10.49,21.5 -0.63,7.012 -1,7.199 -7.4,10.449 -7.46,3.793 -18.73,9.512 -34.85,28.461 -25.82,30.371 -24.96,88.442 -24.22,139.672 l 0.08,38.547 c -1.33,50.641 -9.53,84.442 -16.17,103.862 l -3.1,9.06 9.53,0.85 c 55.37,4.92 170.54,15.15 213.81,68.08 16.36,20.01 20.99,45.18 13.41,72.77"
         style="fill:#f57c14;fill-opacity:1;fill-rule:nonzero;stroke:none"
         transform="matrix(0.13333333,0,0,-0.13333333,0,284.29333)" />
      <path
         id="path65"
         d="m 1250.85,1669.69 c 10.09,1.96 19.8,4.88 29.2,8.47 -0.61,-32.13 -10.61,-62.45 -29.05,-88.44 -8.08,5.37 -15.35,11.83 -21.73,19.09 12.29,18.22 19.67,38.98 21.58,60.88"
         style="fill:#ffffff;fill-opacity:1;fill-rule:nonzero;stroke:none"
         transform="matrix(0.13333333,0,0,-0.13333333,0,284.29333)" />
      <path
         id="path66"
         d="m 1216.89,2003.53 c 87.51,0 158.7,-71.19 158.7,-158.69 0,-87.5 -71.19,-158.7 -158.7,-158.7 l -14.56,1.07 c 0.53,9.74 2.27,19.23 5.26,28.31 l 9.3,-0.61 c 71.65,0 129.93,58.29 129.93,129.93 0,71.64 -58.28,129.92 -129.93,129.92 -68.23,0 -123.44,-51.37 -129.26,-118.34 -10.1,-1.97 -19.85,-4.88 -29.27,-8.48 1.68,86.06 72.08,155.59 158.53,155.59"
         style="fill:#ffffff;fill-opacity:1;fill-rule:nonzero;stroke:none"
         transform="matrix(0.13333333,0,0,-0.13333333,0,284.29333)" />
      <path
         id="path67"
         d="m 1312.01,1839.78 14.5,-1.05 c -0.54,-9.84 -2.32,-19.34 -5.29,-28.32 l -9.21,0.6 c -19.21,0 -38.1,-4.51 -55.34,-12.64 -6.71,7.74 -13.98,14.89 -21.85,21.32 23.53,13.13 49.92,20.09 77.19,20.09"
         style="fill:#ffffff;fill-opacity:1;fill-rule:nonzero;stroke:none"
         transform="matrix(0.13333333,0,0,-0.13333333,0,284.29333)" />
      <path
         id="path68"
         d="m 1121.77,1522.39 c -87.5,0 -158.696,71.2 -158.696,158.7 0,87.5 71.196,158.69 158.696,158.69 62.95,0 118.69,-36.28 144.43,-93.05 -8.52,-4.31 -17.63,-7.63 -27.24,-9.59 -21.53,45.12 -66.66,73.87 -117.19,73.87 -71.64,0 -129.922,-58.28 -129.922,-129.92 0,-71.64 58.282,-129.93 129.922,-129.93 19.31,0 38.32,4.55 55.63,12.78 6.69,-7.68 13.94,-14.87 21.85,-21.31 -23.6,-13.24 -50.1,-20.24 -77.48,-20.24"
         style="fill:#ffffff;fill-opacity:1;fill-rule:nonzero;stroke:none"
         transform="matrix(0.13333333,0,0,-0.13333333,0,284.29333)" />
      <path
         id="path69"
         d="m 1099.74,1788.79 c 9.67,-20.16 24.58,-37.68 42.93,-50.52 -3.25,-9.62 -5.63,-19.52 -7.18,-29.65 -27.75,16.58 -49.56,41.13 -62.95,70.61 8.5,4.29 17.61,7.6 27.2,9.56"
         style="fill:#ffffff;fill-opacity:1;fill-rule:nonzero;stroke:none"
         transform="matrix(0.13333333,0,0,-0.13333333,0,284.29333)" />
      <path
         id="path70"
         d="m 1312.01,1522.39 c -87.51,0 -158.69,71.2 -158.69,158.7 0,33.31 10.17,64.78 29.28,91.66 8.03,-5.34 15.33,-11.76 21.75,-19.08 -14.55,-21.46 -22.26,-46.37 -22.26,-72.58 0,-71.64 58.28,-129.93 129.92,-129.93 71.65,0 129.93,58.29 129.93,129.93 0,43.07 -20.88,82.16 -55.93,106.49 3.26,9.58 5.64,19.53 7.24,29.76 47.44,-28.41 77.45,-80.42 77.45,-136.25 0,-87.5 -71.18,-158.7 -158.69,-158.7"
         style="fill:#ffffff;fill-opacity:1;fill-rule:nonzero;stroke:none"
         transform="matrix(0.13333333,0,0,-0.13333333,0,284.29333)" />
    </g>
  </g>
</svg>
